<?xml version="1.0" encoding="UTF-8" standalone="no"?>
<svg
   xmlns:dc="http://purl.org/dc/elements/1.1/"
   xmlns:cc="http://creativecommons.org/ns#"
   xmlns:rdf="http://www.w3.org/1999/02/22-rdf-syntax-ns#"
   xmlns:svg="http://www.w3.org/2000/svg"
   xmlns="http://www.w3.org/2000/svg"
   xmlns:sodipodi="http://sodipodi.sourceforge.net/DTD/sodipodi-0.dtd"
   xmlns:inkscape="http://www.inkscape.org/namespaces/inkscape"
   data-name="Layer 2"
   viewBox="0 0 25.5 88.781693"
   x="0px"
   y="0px"
   version="1.1"
   id="svg96"
   sodipodi:docname="whisky-state-5.svg"
   width="25.5"
   height="88.781693"
   inkscape:version="1.0.1 (1.0.1+r73)">
  <metadata
     id="metadata100">
    <rdf:RDF>
      <cc:Work
         rdf:about="">
        <dc:format>image/svg+xml</dc:format>
        <dc:type
           rdf:resource="http://purl.org/dc/dcmitype/StillImage" />
        <dc:title>Liqour Cabinet Icons</dc:title>
      </cc:Work>
    </rdf:RDF>
  </metadata>
  <sodipodi:namedview
     pagecolor="#ffffff"
     bordercolor="#666666"
     borderopacity="1"
     objecttolerance="10"
     gridtolerance="10"
     guidetolerance="10"
     inkscape:pageopacity="0"
     inkscape:pageshadow="2"
     inkscape:window-width="1920"
     inkscape:window-height="948"
     id="namedview98"
     showgrid="false"
     inkscape:zoom="5.7194922"
     inkscape:cx="6.9385056"
     inkscape:cy="33.483328"
     inkscape:window-x="0"
     inkscape:window-y="27"
     inkscape:window-maximized="1"
     inkscape:current-layer="layer11"
     inkscape:document-rotation="0" />
  <defs
     id="defs84">
    <style
       id="style82">.cls-1{fill:#231f20;}</style>
  </defs>
  <title
     id="title86">Liqour Cabinet Icons</title>
  <g
     inkscape:groupmode="layer"
     id="layer11"
     inkscape:label="State-7"
     sodipodi:insensitive="true"
     style="display:none">
    <rect
       style="fill:#ffa200;fill-opacity:1;stroke-width:10.833"
       id="rect1982"
       width="11.41245"
       height="12.13907"
       x="7.0553522"
       y="1.1388785"
       ry="0" />
  </g>
  <g
     inkscape:groupmode="layer"
     id="layer10"
     inkscape:label="State-6"
     sodipodi:insensitive="true"
     style="display:inline">
    <rect
       style="fill:#ffa200;fill-opacity:1;stroke-width:10.833"
       id="rect1929"
       width="1.0339392"
       height="5.5538936"
       x="5.6604815"
       y="21.945415" />
    <rect
       style="fill:#ffa200;fill-opacity:1;stroke-width:10.833"
       id="rect1933"
       width="2.8143845"
       height="2.3136001"
       x="3.3227024"
       y="24.136955" />
    <rect
       style="fill:#ffa200;fill-opacity:1;stroke-width:10.833"
       id="rect1954"
       width="4.1913996"
       height="2.380285"
       x="17.3041"
       y="24.135777" />
    <rect
       style="fill:#ffa200;fill-opacity:1;stroke-width:10.833"
       id="rect1956"
       width="5.901094"
       height="2.6195469"
       x="14.554569"
       y="22.236372" />
    <rect
       style="fill:#ffa200;fill-opacity:1;stroke-width:10.833"
       id="rect1969"
       width="11.555732"
       height="3.1599436"
       x="6.5131412"
       y="22.832705" />
    <rect
       style="fill:#ffa200;fill-opacity:1;stroke-width:10.833"
       id="rect1971"
       width="1.634706"
       height="6.6570778"
       x="6.8281522"
       y="18.300949" />
    <rect
       style="fill:#ffa200;fill-opacity:1;stroke-width:10.833"
       id="rect1975"
       width="3.9196379"
       height="7.5125709"
       x="14.450633"
       y="16.801107" />
    <rect
       style="fill:#ffa200;fill-opacity:1;stroke-width:10.833"
       id="rect1979"
       width="8.9560537"
       height="11.471231"
       x="7.9348845"
       y="13.310321" />
  </g>
  <g
     inkscape:groupmode="layer"
     id="layer9"
     inkscape:label="State-5"
     sodipodi:insensitive="true"
     style="display:inline">
    <rect
       style="fill:#ffa200;fill-opacity:1;stroke-width:10.833"
       id="rect1924"
       width="22.770203"
       height="11.092806"
       x="1.2153172"
       y="25.780107" />
  </g>
  <g
     inkscape:groupmode="layer"
     id="layer8"
     inkscape:label="State-4"
     sodipodi:insensitive="true"
     style="display:inline">
    <rect
       style="fill:#ffa200;fill-opacity:1;stroke-width:10.833"
       id="rect1921"
       width="23.996761"
       height="13.157172"
       x="0.77768284"
       y="34.168945" />
  </g>
  <g
     inkscape:groupmode="layer"
     id="layer7"
     inkscape:label="State-3"
     sodipodi:insensitive="true"
     style="display:inline">
    <rect
       style="fill:#ffa200;fill-opacity:1;stroke-width:10.833"
       id="rect1918"
       width="23.798395"
       height="16.680662"
       x="0.56399953"
       y="45.272476"
       ry="0" />
  </g>
  <g
     inkscape:groupmode="layer"
     id="layer6"
     inkscape:label="State-2"
     sodipodi:insensitive="true"
     style="display:inline">
    <rect
       style="fill:#ffa200;fill-opacity:1;stroke-width:10.833"
       id="rect1913"
       width="22.578388"
       height="13.203618"
       x="1.5139394"
       y="58.353977" />
  </g>
  <g
     inkscape:groupmode="layer"
     id="layer5"
     inkscape:label="State-1"
     sodipodi:insensitive="true"
     style="display:inline">
    <rect
       style="fill:#ffa200;fill-opacity:1;stroke-width:10.833"
       id="rect1910"
       width="22.510029"
       height="17.106373"
       x="1.5139394"
       y="70.059837" />
  </g>
  <path
     class="cls-1"
     d="m 25.5,26.39 -0.45,-0.27 c -6.65,-4 -6.66,-9 -6.64,-9.61 v -2.4 h 1 V 0 H 6.13 v 14.11 h 1 v 2.51 c 0,0 0.23,5.36 -6.64,9.51 L 0,26.39 v 59.39 a 3.14,3.14 0 0 0 3.24,3 h 19 a 3.14,3.14 0 0 0 3.24,-3 V 26.39 Z M 8.13,1.81 h 9.24 V 12.3 H 8.13 Z M 23.5,85.78 a 1.22,1.22 0 0 1 -1.24,1.2 h -19 A 1.22,1.22 0 0 1 2.02,85.78 V 84.21 H 23.5 v 1.56 z m 0,-3.39 H 2 v -7.08 h 6 v 4.8 h 9.5 v -4.8 h 6 z M 10,78.29 v -5.21 h 5.5 V 78.3 H 10 Z M 23.5,73.5 h -6 V 71.27 H 8 V 73.5 H 2 V 62.64 L 23.5,54.55 Z M 23.5,52.59 2,60.67 V 58.89 L 23.5,50.8 Z m 0,-3.75 L 2,56.92 V 47.64 L 23.5,39.55 Z M 23.5,37.59 2,45.68 v -1.79 l 21.5,-8.08 z m 0,-3.75 L 2,41.93 V 27.39 L 2.23,27.24 C 9.39,22.56 9.09,16.66 9.09,16.6 v -2.49 h 7.33 v 2.35 c 0,0.28 -0.27,6.09 6.85,10.75 l 0.23,0.18 v 6.48 z"
     id="path88" />
  <path
     class="cls-1"
     d="m 15.78,32.03 0.72,0.67 3.69,-3.46 -0.69,-0.62 a 10,10 0 0 0 -13.45,0 l -0.67,0.63 3.69,3.46 0.72,-0.67 a 4.43,4.43 0 0 1 5.99,-0.01 z M 9.5,29.96 9.18,30.15 8.24,29.27 8.81,28.93 a 8.11,8.11 0 0 1 8.06,0 l 0.57,0.34 -0.94,0.88 -0.32,-0.19 a 6.66,6.66 0 0 0 -6.68,0 z"
     id="path90" />
  <path
     style="fill:#ffa200;stroke-width:0.163399;fill-opacity:1"
     d="M 2.4934641,86.546863 C 2.2392883,86.292687 2.1666667,86.0022 2.1666667,85.239673 V 84.259281 H 12.787582 23.408497 v 0.95191 c 0,0.78375 -0.06681,1.014671 -0.378178,1.307189 l -0.378178,0.35528 h -9.91594 c -9.6980746,0 -9.9231197,-0.0072 -10.2427369,-0.326797 z"
     id="path971" />
  <g
     inkscape:groupmode="layer"
     id="layer4"
     inkscape:label="Base"
     sodipodi:insensitive="true">
    <path
       style="fill:#ffa200;fill-opacity:1;stroke-width:1.25165"
       d="M 3.0111944,86.707995 C 2.4599748,86.624248 2.2287551,86.183089 2.2287551,85.21513 V 84.364159 H 12.813323 23.397891 l -0.04348,0.861018 c -0.03857,0.763848 -0.08156,0.90076 -0.380867,1.213173 l -0.337386,0.352156 -9.654885,-0.01731 c -5.3101874,-0.0095 -9.796723,-0.03886 -9.9700796,-0.0652 z"
       id="path1853" />
    <path
       style="fill:#ffa200;fill-opacity:1;stroke-width:1.25165"
       d="M 3.0111944,86.707995 C 2.4599748,86.624248 2.2287551,86.183089 2.2287551,85.21513 V 84.364159 H 12.813323 23.397891 l -0.04348,0.861018 c -0.03857,0.763848 -0.08156,0.90076 -0.380867,1.213173 l -0.337386,0.352156 -9.654885,-0.01731 c -5.3101874,-0.0095 -9.796723,-0.03886 -9.9700796,-0.0652 z"
       id="path1855" />
    <path
       style="fill:#ffa200;fill-opacity:1;stroke-width:1.25165"
       d="M 3.0111944,86.707995 C 2.4599748,86.624248 2.2287551,86.183089 2.2287551,85.21513 V 84.364159 H 12.813323 23.397891 l -0.04348,0.861018 c -0.03857,0.763848 -0.08156,0.90076 -0.380867,1.213173 l -0.337386,0.352156 -9.654885,-0.01731 c -5.3101874,-0.0095 -9.796723,-0.03886 -9.9700796,-0.0652 z"
       id="path1857" />
    <path
       style="fill:#ffa200;fill-opacity:1;stroke-width:1.25165"
       d="M 3.0111944,86.707995 C 2.4599748,86.624248 2.2287551,86.183089 2.2287551,85.21513 V 84.364159 H 12.813323 23.397891 l -0.04348,0.861018 c -0.03857,0.763848 -0.08156,0.90076 -0.380867,1.213173 l -0.337386,0.352156 -9.654885,-0.01731 c -5.3101874,-0.0095 -9.796723,-0.03886 -9.9700796,-0.0652 z"
       id="path1859" />
    <path
       style="fill:#ffa200;fill-opacity:1;stroke-width:1.25165"
       d="M 3.0111944,86.707995 C 2.4599748,86.624248 2.2287551,86.183089 2.2287551,85.21513 V 84.364159 H 12.813323 23.397891 l -0.04348,0.861018 c -0.03857,0.763848 -0.08156,0.90076 -0.380867,1.213173 l -0.337386,0.352156 -9.654885,-0.01731 c -5.3101874,-0.0095 -9.796723,-0.03886 -9.9700796,-0.0652 z"
       id="path1861" />
    <path
       style="fill:#ffa200;fill-opacity:1;stroke-width:1.25165"
       d="M 2.9531843,86.709267 C 2.4536743,86.612782 2.2287551,86.148886 2.2287551,85.21513 V 84.364159 H 12.813323 23.397891 l -0.04348,0.861018 c -0.03857,0.763848 -0.08156,0.90076 -0.380867,1.213173 l -0.337386,0.352156 -9.712655,-0.01573 c -5.3419611,-0.0087 -9.8286048,-0.03813 -9.9703197,-0.0655 z"
       id="path1863" />
    <path
       style="fill:#ffa200;fill-opacity:1;stroke-width:1.25165"
       d="M 2.9531843,86.709267 C 2.4536743,86.612782 2.2287551,86.148886 2.2287551,85.21513 V 84.364159 H 12.813323 23.397891 l -0.04348,0.861018 c -0.03857,0.763848 -0.08156,0.90076 -0.380867,1.213173 l -0.337386,0.352156 -9.712655,-0.01573 c -5.3419611,-0.0087 -9.8286048,-0.03813 -9.9703197,-0.0655 z"
       id="path1865" />
    <path
       style="fill:#ffa200;fill-opacity:1;stroke-width:1.25165"
       d="M 2.9531843,86.709267 C 2.4536743,86.612782 2.2287551,86.148886 2.2287551,85.21513 V 84.364159 H 12.813323 23.397891 l -0.04348,0.861018 c -0.03857,0.763848 -0.08156,0.90076 -0.380867,1.213173 l -0.337386,0.352156 -9.712655,-0.01573 c -5.3419611,-0.0087 -9.8286048,-0.03813 -9.9703197,-0.0655 z"
       id="path1867" />
    <path
       style="fill:#ffa200;fill-opacity:1;stroke-width:1.25165"
       d="M 2.8477044,86.675938 C 2.390866,86.491581 2.2287551,86.106324 2.2287551,85.205003 V 84.364159 H 12.813323 23.397891 l -0.04348,0.861018 c -0.03857,0.763848 -0.08156,0.90076 -0.380867,1.213173 l -0.337386,0.352156 -9.770426,-0.0073 c -5.3737339,-0.004 -9.8818469,-0.05229 -10.0180286,-0.107244 z"
       id="path1869" />
    <path
       style="fill:#ffa200;fill-opacity:1;stroke-width:1.25165"
       d="M 2.7942661,86.66178 C 2.3797888,86.509667 2.2287551,86.110584 2.2287551,85.167505 V 84.364159 H 12.800695 23.372634 v 0.783074 c 0,0.784422 -0.142365,1.156297 -0.572399,1.495173 -0.224419,0.176847 -19.5259558,0.195539 -20.0059689,0.01937 z"
       id="path1871" />
    <path
       style="fill:#ffa200;fill-opacity:1;stroke-width:1.25165"
       d="M 2.7942661,86.66178 C 2.3797888,86.509667 2.2287551,86.110584 2.2287551,85.167505 V 84.364159 H 12.800695 23.372634 v 0.783074 c 0,0.784422 -0.142365,1.156297 -0.572399,1.495173 -0.224419,0.176847 -19.5259558,0.195539 -20.0059689,0.01937 z"
       id="path1873" />
    <path
       style="fill:#ffa200;fill-opacity:1;stroke-width:1.25165"
       d="M 2.7942661,86.66178 C 2.3797888,86.509667 2.2287551,86.110584 2.2287551,85.167505 V 84.364159 H 12.800695 23.372634 v 0.75675 c 0,0.811106 -0.199068,1.351418 -0.571302,1.550631 -0.292513,0.156549 -19.5795456,0.14714 -20.0070659,-0.0098 z"
       id="path1875" />
  </g>
</svg>
